<svg width="12" height="12" viewBox="0 0 12 12" fill="none" xmlns="http://www.w3.org/2000/svg">
<g clip-path="url(#clip0_4708_575)">
<path d="M11.263 7.57894C10.5152 10.5786 7.47608 12.4021 4.48068 11.6543C1.48091 10.9066 -0.342561 7.86755 0.405217 4.87219C1.15295 1.87251 4.1877 0.0490406 7.18747 0.796819C10.1829 1.54018 12.0108 4.57921 11.263 7.57894Z" fill="url(#paint0_linear_4708_575)"/>
<path d="M8.49908 5.52795C8.60839 4.78467 8.04437 4.38243 7.26612 4.11572L7.51971 3.10574L6.9076 2.95272L6.66276 3.93646C6.50099 3.89711 6.33484 3.85776 6.1687 3.82279L6.41354 2.83467L5.80143 2.68164L5.55222 3.68725C5.41668 3.65664 5.28551 3.62604 5.15872 3.59543V3.59106L4.31051 3.38119L4.14874 4.03702C4.14874 4.03702 4.60345 4.14196 4.5947 4.14633C4.84392 4.20754 4.88764 4.37368 4.8789 4.50485L4.59033 5.65474C4.60782 5.65911 4.62968 5.66348 4.65592 5.6766C4.63405 5.67223 4.61219 5.66786 4.59033 5.65911L4.18809 7.26808C4.15748 7.34241 4.07878 7.45609 3.90827 7.41236C3.91264 7.42111 3.4623 7.30306 3.4623 7.30306L3.15625 8.00698L3.95636 8.20811C4.10502 8.24746 4.2493 8.28243 4.39358 8.32178L4.14 9.34051L4.7521 9.49353L5.00569 8.48355C5.17184 8.52728 5.33798 8.571 5.49538 8.61035L5.24616 9.61596L5.85827 9.76898L6.11186 8.75026C7.16119 8.94701 7.94819 8.86831 8.2761 7.91954C8.5428 7.15878 8.26298 6.71718 7.71209 6.42862C8.1187 6.3368 8.42038 6.0701 8.49908 5.52795ZM7.09561 7.49544C6.9076 8.2562 5.62217 7.84521 5.20681 7.74028L5.54347 6.38927C5.95883 6.4942 7.29673 6.6997 7.09561 7.49544ZM7.28798 5.51483C7.11309 6.21001 6.04628 5.85586 5.70087 5.76842L6.00693 4.5442C6.35233 4.63164 7.46724 4.79342 7.28798 5.51483Z" fill="#312E52"/>
</g>
<defs>
<linearGradient id="paint0_linear_4708_575" x1="5.83094" y1="0.626464" x2="5.83094" y2="11.8209" gradientUnits="userSpaceOnUse">
<stop stop-color="#F9AA4B"/>
<stop offset="1" stop-color="#F7931A"/>
</linearGradient>
<clipPath id="clip0_4708_575">
<rect width="11.1928" height="11.1928" fill="white" transform="translate(0.237305 0.628906)"/>
</clipPath>
</defs>
</svg>
