<svg width="60" height="40" viewBox="0 0 60 40" fill="none" xmlns="http://www.w3.org/2000/svg">
<path d="M58.7988 22.1825C55.7378 19.9082 55.5578 3.5337 51.5965 3.53369C47.6352 3.53369 48.5355 31.2794 44.3942 31.2794C40.2529 31.2794 40.5232 18.983 36.8318 18.9985C33.1403 19.0141 33.9508 36.7376 29.9896 36.7376C26.0283 36.7376 26.0516 24.9116 22.9673 24.9116C19.5462 24.9116 18.2858 14.45 15.5849 14.9049C12.8841 15.3597 11.2635 26.2761 8.38261 26.2761C5.50168 26.2761 3.52104 19.4534 1.18029 19.4534" stroke="#F5683B" stroke-width="0.946938" stroke-linecap="round"/>
<g opacity="0.1">
<path d="M58.7983 0.929443V39.3418" stroke="white" stroke-opacity="0.3" stroke-width="0.435679"/>
<path d="M44.3938 0.929443V39.3418" stroke="white" stroke-opacity="0.3" stroke-width="0.435679"/>
<path d="M29.9893 0.929443V39.3418" stroke="white" stroke-opacity="0.3" stroke-width="0.435679"/>
<path d="M1.17993 0.929443V39.3418" stroke="white" stroke-opacity="0.3" stroke-width="0.435679"/>
<path d="M15.5845 0.929443V39.3418" stroke="white" stroke-opacity="0.3" stroke-width="0.435679"/>
</g>
</svg>
