<svg width="620" height="633" viewBox="0 0 620 633" fill="none" xmlns="http://www.w3.org/2000/svg">
<g clip-path="url(#clip0_4708_455)">
<path d="M230.233 235.284C234.78 230.287 242.29 231.747 247.287 235.274C253.717 239.813 255.556 248.101 256.505 255.448C258.111 267.886 258.586 285.467 272.725 290.667C279.258 293.07 286.736 291.086 292.254 287.185C298.28 282.924 302.04 276.37 304.558 269.577C307.606 261.352 309.371 252.555 310.867 243.936C312.397 235.122 313.399 226.213 313.849 217.279C314.29 208.539 314.003 199.856 313.655 191.121C313.383 184.302 313.279 177.14 315.589 170.619C317.921 164.033 323.344 159.023 330.474 158.363C337.396 157.721 344.524 160.633 349.531 165.331C361.546 176.605 362.112 195.011 364.797 210.127C366.208 218.069 368.271 226.106 372.594 233.016C376.15 238.699 381.091 243.463 386.783 246.998C398.264 254.127 412.893 256.208 425.633 251.309C438.071 246.527 448.083 236.074 452.415 223.509C453.485 220.406 454.146 217.2 454.481 213.939C454.636 212.423 452.259 212.434 452.104 213.939C450.68 227.8 441.76 240.352 429.538 246.927C416.961 253.691 401.731 252.833 389.443 245.82C383.402 242.372 378.148 237.51 374.496 231.579C370.068 224.388 368.172 216.005 366.793 207.775C364.301 192.91 363.171 175.842 352.002 164.429C343.341 155.577 327.401 152.025 318.092 161.884C308.507 172.037 311.38 188.391 311.686 200.994C312.135 219.451 310.227 237.951 305.998 255.926C304.157 263.75 302.04 271.818 297.42 278.527C293.198 284.659 286.298 289.411 278.614 289.335C270.951 289.26 265.567 283.642 262.846 276.944C259.976 269.878 259.788 262.247 258.795 254.788C257.883 247.941 256.222 240.363 251.075 235.352C247.072 231.456 241.133 228.947 235.499 229.843C232.792 230.274 230.392 231.586 228.552 233.607C227.526 234.735 229.202 236.416 230.233 235.284H230.233Z" fill="#269E96"/>
<path d="M573.713 488.749C572.375 486.499 566.587 488.908 565.523 486.866C564.463 484.831 569.84 481.731 572.912 474.648C573.466 473.371 576.958 465.323 574.373 462.839C569.474 458.132 547.057 477.558 539.212 471.201C537.49 469.806 536.287 467.021 531.077 462.499C529.004 460.7 527.75 459.888 526.537 460.19C524.816 460.618 524.679 462.917 522.833 467.435C520.065 474.211 518.428 473.802 516.815 479.209C515.618 483.222 515.892 485.555 514.483 486.01C512.489 486.653 510.654 482.396 508.127 482.777C505.549 483.166 503.99 488.123 503.498 491.834C502.574 498.798 505.138 503.393 506.559 508.225C508.103 513.477 509.02 521.462 505.453 532.768L470.155 631.973C477.948 611.617 500.512 555.813 509.993 535.077C512.73 529.09 515.752 523.018 521.957 520.622C527.932 518.315 536.137 519.692 546.597 517.178C547.819 516.885 551.209 516.025 551.635 514.036C551.988 512.391 549.994 511.473 550.3 509.933C550.711 507.867 554.633 507.842 559.451 505.459C562.849 503.778 564.966 501.779 566.787 500.061C567.335 499.542 575.494 491.744 573.713 488.749H573.713H573.713Z" fill="#F2F2F2"/>
<path d="M434.839 540.975C433.345 540.981 432.861 544.509 431.549 544.441C430.242 544.373 430.268 540.846 427.67 537.298C427.201 536.658 424.249 532.627 422.281 533.176C418.551 534.216 421.642 550.796 416.25 552.803C415.067 553.243 413.349 553.028 409.621 554.275C408.138 554.771 407.376 555.15 407.175 555.831C406.889 556.798 407.981 557.527 409.671 559.735C412.207 563.045 411.533 563.729 413.728 566.078C415.357 567.822 416.584 568.362 416.401 569.183C416.142 570.344 413.518 570.015 412.977 571.361C412.424 572.736 414.413 574.929 416.097 576.241C419.257 578.703 422.258 578.773 425.046 579.472C428.075 580.231 432.269 582.087 436.802 587.094L475.43 633C467.662 623.311 446.716 596.163 439.248 585.538C437.092 582.471 434.977 579.239 435.588 575.51C436.177 571.919 439.222 568.3 441.003 562.453C441.211 561.77 441.766 559.862 440.91 559.08C440.203 558.432 439.176 559.144 438.507 558.549C437.609 557.752 438.728 555.825 438.946 552.778C439.099 550.63 438.726 549.017 438.406 547.629C438.309 547.211 436.826 540.967 434.839 540.975V540.975V540.975Z" fill="#F2F2F2"/>
<path d="M464.627 547.645L463.727 539.635L464.138 539.027C466.04 536.219 467.009 533.477 467.021 530.874C467.023 530.46 467.004 530.046 466.984 529.624C466.907 527.953 466.81 525.876 467.895 523.455C468.504 522.105 470.214 518.98 472.785 519.366C473.477 519.463 474.001 519.78 474.398 520.152C474.456 520.059 474.516 519.966 474.58 519.865C475.381 518.647 476.015 518.125 476.626 517.622C477.095 517.235 477.58 516.837 478.34 515.893C478.673 515.479 478.933 515.116 479.152 514.81C479.817 513.886 480.686 512.783 482.217 512.802C483.854 512.88 484.711 514.23 485.279 515.123C486.293 516.717 486.752 517.866 487.057 518.628C487.167 518.906 487.293 519.219 487.357 519.316C487.885 520.09 492.171 519.366 493.786 519.103C497.414 518.5 500.553 517.978 501.846 520.26C502.773 521.892 502.084 524.05 499.738 526.847C499.007 527.717 498.23 528.379 497.54 528.897C498.112 529.237 498.623 529.76 498.831 530.58C499.32 532.521 497.646 534.467 493.86 536.37C492.92 536.846 491.654 537.48 489.88 537.786C489.044 537.929 488.292 537.964 487.648 537.983C487.634 538.354 487.547 538.757 487.32 539.17C486.655 540.389 485.271 540.969 483.185 540.83C480.889 540.71 478.999 540.273 477.332 539.89C475.876 539.557 474.621 539.275 473.636 539.341C471.81 539.488 470.402 540.946 468.751 542.837L464.627 547.645H464.627V547.645Z" fill="#F2F2F2"/>
<path d="M468.8 499.95L461.26 502.85L460.567 502.607C457.361 501.485 454.456 501.245 451.929 501.894C451.527 501.997 451.131 502.121 450.727 502.246C449.126 502.745 447.137 503.365 444.513 502.932C443.05 502.687 439.585 501.83 439.308 499.251C439.227 498.559 439.401 497.973 439.661 497.495C439.556 497.463 439.451 497.428 439.337 497.392C437.952 496.929 437.285 496.449 436.643 495.988C436.148 495.633 435.639 495.266 434.531 494.772C434.045 494.556 433.627 494.397 433.275 494.263C432.21 493.856 430.921 493.298 430.551 491.815C430.211 490.216 431.302 489.047 432.025 488.272C433.313 486.89 434.31 486.155 434.972 485.668C435.214 485.491 435.486 485.29 435.563 485.203C436.18 484.498 434.391 480.546 433.726 479.054C432.221 475.707 430.919 472.811 432.804 470.984C434.151 469.676 436.419 469.792 439.726 471.347C440.755 471.831 441.594 472.414 442.271 472.948C442.456 472.31 442.833 471.684 443.576 471.275C445.335 470.311 447.646 471.432 450.451 474.603C451.151 475.39 452.088 476.451 452.834 478.085C453.185 478.855 453.409 479.572 453.591 480.188C453.955 480.107 454.367 480.089 454.826 480.203C456.176 480.535 457.09 481.724 457.484 483.772C457.95 486.018 458.005 487.952 458.057 489.658C458.104 491.148 458.148 492.43 458.462 493.363C459.068 495.088 460.839 496.077 463.092 497.191L468.8 499.95H468.8V499.95Z" fill="#F2F2F2"/>
<path d="M464.627 476.351L463.727 468.34L464.138 467.733C466.04 464.925 467.009 462.182 467.021 459.579C467.023 459.165 467.004 458.752 466.984 458.33C466.907 456.659 466.81 454.582 467.895 452.161C468.504 450.811 470.214 447.685 472.785 448.072C473.477 448.169 474.001 448.486 474.398 448.857C474.456 448.764 474.516 448.672 474.58 448.571C475.381 447.353 476.015 446.831 476.626 446.328C477.095 445.941 477.58 445.542 478.34 444.599C478.673 444.185 478.933 443.821 479.152 443.516C479.817 442.591 480.686 441.489 482.217 441.508C483.854 441.586 484.711 442.935 485.279 443.829C486.293 445.423 486.752 446.571 487.057 447.333C487.167 447.612 487.293 447.925 487.357 448.022C487.885 448.795 492.171 448.072 493.786 447.809C497.414 447.206 500.553 446.683 501.846 448.966C502.773 450.598 502.084 452.756 499.738 455.553C499.007 456.423 498.23 457.084 497.54 457.603C498.112 457.943 498.623 458.465 498.831 459.285C499.32 461.227 497.646 463.173 493.86 465.076C492.92 465.551 491.654 466.186 489.88 466.491C489.044 466.634 488.292 466.669 487.648 466.689C487.634 467.06 487.547 467.462 487.32 467.876C486.655 469.095 485.271 469.675 483.185 469.535C480.889 469.416 478.999 468.978 477.332 468.596C475.876 468.263 474.621 467.981 473.636 468.046C471.81 468.193 470.402 469.651 468.751 471.543L464.627 476.351H464.627V476.351Z" fill="#F2F2F2"/>
<path d="M472.843 631.843L471.16 630.791L470.753 628.853L471.16 630.791L469.198 631.015C469.167 630.833 469.061 630.415 468.9 629.762C468.022 626.18 465.344 615.28 463.111 598.114C461.552 586.131 460.67 573.812 460.487 561.492C460.305 549.153 460.891 539.812 461.36 532.305C461.715 526.642 462.145 521.25 462.568 515.997C463.692 501.964 464.753 488.709 463.964 474.034C463.789 470.758 463.423 463.939 459.429 456.682C457.112 452.474 453.921 448.737 449.942 445.581L452.416 442.479C456.807 445.968 460.338 450.107 462.911 454.779C467.339 462.825 467.738 470.255 467.93 473.825C468.733 488.759 467.661 502.142 466.525 516.311C466.106 521.544 465.675 526.913 465.323 532.552C464.857 539.99 464.278 549.25 464.458 561.43C464.636 573.603 465.509 585.771 467.046 597.604C469.253 614.553 471.891 625.29 472.758 628.818C473.219 630.702 473.316 631.096 472.843 631.843V631.843L472.843 631.843Z" fill="#F2F2F2"/>
<path d="M442.66 451.874C442.497 451.874 442.332 451.871 442.166 451.859C438.784 451.677 435.653 449.658 432.857 445.86C431.547 444.073 430.876 442.034 429.538 437.969C429.331 437.342 428.323 434.163 427.71 429.788C427.309 426.93 427.359 425.735 427.927 424.679C428.557 423.503 429.577 422.683 430.725 422.13C430.674 421.751 430.715 421.36 430.88 420.962C431.557 419.31 433.356 419.527 434.329 419.631C434.821 419.693 435.436 419.774 436.099 419.739C437.142 419.689 437.703 419.38 438.552 418.916C439.364 418.471 440.374 417.918 441.873 417.612C444.828 416.997 447.303 417.833 448.12 418.107C452.414 419.534 454.531 422.865 456.982 426.721C457.471 427.495 459.148 430.31 460.255 434.171C461.053 436.956 460.941 438.193 460.701 439.114C460.212 441.005 459.058 442.088 456.129 444.479C453.069 446.981 451.534 448.235 450.216 448.997C447.146 450.764 445.219 451.874 442.66 451.874V451.874V451.874Z" fill="#F2F2F2"/>
<path d="M358.649 138.039H304.426C303.059 138.039 301.947 136.929 301.947 135.566C301.947 134.202 303.059 133.093 304.426 133.093H358.649C360.016 133.093 361.127 134.202 361.127 135.566C361.127 136.929 360.016 138.039 358.649 138.039V138.039Z" fill="#E6E6E6"/>
<path d="M442.627 281.87H388.405C387.038 281.87 385.926 280.76 385.926 279.397C385.926 278.033 387.038 276.924 388.405 276.924H442.627C443.994 276.924 445.106 278.033 445.106 279.397C445.106 280.76 443.994 281.87 442.627 281.87V281.87Z" fill="#E6E6E6"/>
<path d="M239.811 84.2998H185.588C184.221 84.2998 183.109 83.1902 183.109 81.8266C183.109 80.463 184.221 79.354 185.588 79.354H239.811C241.178 79.354 242.29 80.463 242.29 81.8266C242.29 83.1902 241.178 84.2997 239.811 84.2997V84.2998Z" fill="#E6E6E6"/>
<path d="M-170.275 630.002C-170.275 631.045 -169.435 631.883 -168.389 631.883H659.181C660.226 631.883 661.066 631.045 661.066 630.002C661.066 628.959 660.226 628.121 659.181 628.121H-168.389C-169.435 628.121 -170.275 628.959 -170.275 630.002Z" fill="#CCCCCC"/>
<path d="M459.166 351.168H213.409C212.534 351.168 211.825 350.46 211.825 349.588V115.665C211.825 114.791 212.534 114.084 213.409 114.084C214.284 114.084 214.994 114.791 214.994 115.665V211.112C214.994 286.717 276.437 348.007 352.23 348.007H459.166C460.041 348.007 460.75 348.714 460.75 349.588C460.75 350.461 460.041 351.168 459.166 351.168H459.166Z" fill="#E6E6E6"/>
<path d="M265.163 257.156H210.94C209.573 257.156 208.461 256.046 208.461 254.683C208.461 253.319 209.573 252.21 210.94 252.21H265.163C266.53 252.21 267.642 253.319 267.642 254.683C267.642 256.046 266.53 257.156 265.163 257.156V257.156Z" fill="#E6E6E6"/>
<path d="M211.4 264.193C219.999 261.36 225.504 254.638 223.696 249.179C221.888 243.72 213.452 241.593 204.85 244.428C201.398 245.513 198.257 247.407 195.69 249.952L159.406 262.414L165.631 279.274L200.74 265.199C204.323 265.717 207.978 265.373 211.4 264.193V264.193Z" fill="#FFB6B6"/>
<path d="M24.8838 360.824C25.1774 369.853 30.0857 377.021 35.846 376.833C41.6064 376.646 46.0365 369.176 45.7416 360.143C45.6734 356.534 44.7396 352.993 43.0184 349.817L41.2901 311.577L23.3176 312.769L26.9295 350.34C25.418 353.622 24.7165 357.217 24.8838 360.824L24.8838 360.824Z" fill="#FFB6B6"/>
<path d="M66.3763 618.491L82.4185 618.489L86.5287 556.357L66.373 556.767L66.3763 618.491Z" fill="#FFB6B6"/>
<path d="M121.339 618.128C121.838 618.967 122.102 621.675 122.102 622.651C122.102 625.651 119.664 628.082 116.657 628.082H66.9762C64.9249 628.082 63.2618 626.424 63.2618 624.377V622.314C63.2618 622.314 60.8041 616.113 65.864 608.47C65.864 608.47 72.1528 614.454 81.5498 605.081L84.3209 600.073L104.38 614.707L115.498 616.072C117.931 616.371 120.087 616.026 121.339 618.128H121.339V618.128Z" fill="#2F2E41"/>
<path d="M104.404 618.491L120.447 618.489L124.557 556.357L104.401 556.767L104.404 618.491Z" fill="#FFB6B6"/>
<path d="M159.367 618.128C159.866 618.967 160.13 621.675 160.13 622.651C160.13 625.651 157.692 628.082 154.685 628.082H105.004C102.953 628.082 101.29 626.424 101.29 624.377V622.314C101.29 622.314 98.8322 616.113 103.892 608.47C103.892 608.47 110.181 614.454 119.578 605.081L122.349 600.073L142.408 614.707L153.526 616.072C155.959 616.371 158.116 616.026 159.367 618.128H159.367V618.128Z" fill="#2F2E41"/>
<path d="M75.7114 155.708C88.7444 155.708 99.3097 145.169 99.3097 132.169C99.3097 119.168 88.7444 108.629 75.7114 108.629C62.6784 108.629 52.113 119.168 52.113 132.169C52.113 145.169 62.6784 155.708 75.7114 155.708Z" fill="#FFB6B6"/>
<path d="M43.0598 327.966L54.1513 486.022L60.4893 591.919L90.5949 590.339L87.4259 474.958L93.7639 403.833L103.271 590.339H127.232L136.545 329.547L85.0491 322.434L43.0598 327.966Z" fill="#2F2E41"/>
<path d="M84.2568 150.943C77.5451 157.388 62.034 153.115 54.1513 150.943C49.8123 149.748 47.1938 148.516 46.2287 146.202C45.5579 144.593 45.9391 143.067 44.6442 139.879C43.8858 138.012 43.4858 137.873 43.0597 136.718C41.8719 133.5 43.5218 130.632 44.6442 127.235C46.9863 120.146 44.19 119.35 46.2287 114.59C49.2937 107.436 57.6311 104.524 60.4893 103.527C65.8256 101.663 70.276 101.86 71.5808 101.946C79.9397 102.495 85.5282 106.774 87.4258 108.268C91.2724 111.298 93.1592 114.503 96.9328 120.913C100.217 126.49 100.456 128.631 100.102 130.396C99.5622 133.086 98.0071 133.096 96.9328 136.718C95.7134 140.83 97.1005 142.897 95.3483 144.621C94.1639 145.787 93.0632 145.302 90.5948 146.202C87.1975 147.44 85.5206 149.73 84.2568 150.943Z" fill="#2F2E41"/>
<path d="M103.271 174.652C103.271 174.652 79.5032 144.621 49.3977 155.685L39.6474 174.652L36.3898 177.728C22.7248 190.631 16.3671 209.455 19.4192 227.976L33.5527 313.741C33.5527 313.741 31.9682 346.933 43.0597 356.416C43.0597 356.416 58.9047 326.385 96.9328 340.61C134.961 354.836 142.883 346.933 142.883 346.933L130.207 256.841L103.271 174.652V174.652Z" fill="#2F2E41"/>
<path d="M95.3483 179.393L87.4258 196.78L117.531 297.935L199.925 267.905L188.834 248.938L149.221 260.002C149.221 260.002 119.116 171.491 95.3483 179.393Z" fill="#2F2E41"/>
<path d="M39.0985 338.24H21.669L18.5 211.795L39.0985 254.47V338.24Z" fill="#2F2E41"/>
<path d="M230.031 241.826C233.969 241.826 237.161 238.641 237.161 234.713C237.161 230.785 233.969 227.601 230.031 227.601C226.093 227.601 222.901 230.785 222.901 234.713C222.901 238.641 226.093 241.826 230.031 241.826Z" fill="#3F3D56"/>
<path d="M277.566 297.145C281.504 297.145 284.697 293.961 284.697 290.033C284.697 286.105 281.504 282.92 277.566 282.92C273.628 282.92 270.436 286.105 270.436 290.033C270.436 293.961 273.628 297.145 277.566 297.145Z" fill="#3F3D56"/>
<path d="M331.439 164.378C335.377 164.378 338.57 161.194 338.57 157.266C338.57 153.337 335.377 150.153 331.439 150.153C327.501 150.153 324.309 153.337 324.309 157.266C324.309 161.194 327.501 164.378 331.439 164.378Z" fill="#3F3D56"/>
<path d="M410.664 259.212C414.602 259.212 417.795 256.027 417.795 252.099C417.795 248.171 414.602 244.987 410.664 244.987C406.727 244.987 403.534 248.171 403.534 252.099C403.534 256.027 406.727 259.212 410.664 259.212Z" fill="#3F3D56"/>
<path d="M456.615 221.278C460.553 221.278 463.745 218.094 463.745 214.166C463.745 210.238 460.553 207.053 456.615 207.053C452.677 207.053 449.485 210.238 449.485 214.166C449.485 218.094 452.677 221.278 456.615 221.278Z" fill="#3F3D56"/>
<path d="M443.031 63.2601L456.071 69.422C450.723 61.9763 446.114 50.3478 443.647 41.0945C439.469 49.714 432.735 60.2605 426.069 66.5604L439.851 63.0236C431.358 104.542 399.416 134.347 362.837 134.347L362.319 135.847C400.527 135.847 434.36 106.454 443.031 63.2601V63.2601Z" fill="#3F3D56"/>
<path d="M403.61 0H486.004C489.499 0 492.342 2.8362 492.342 6.32224C492.342 9.80827 489.499 12.6445 486.004 12.6445H403.61C400.115 12.6445 397.272 9.80827 397.272 6.32224C397.272 2.8362 400.115 0 403.61 0Z" fill="#269E96"/>
<path d="M459.274 364.104C458.405 364.104 457.529 363.912 456.694 363.521C454.635 362.556 453.342 360.627 453.237 358.361L452.383 339.986C452.273 337.625 453.508 335.48 455.606 334.384C457.704 333.288 460.176 333.501 462.057 334.934L474.603 344.505C476.112 345.655 476.974 347.402 476.968 349.294C476.962 351.19 476.089 352.929 474.574 354.072L462.882 362.877C461.803 363.689 460.547 364.104 459.274 364.104V364.104Z" fill="#E6E6E6"/>
<path d="M227.982 117.197C227.982 118.064 227.788 118.938 227.397 119.771C226.43 121.825 224.495 123.114 222.224 123.219L203.802 124.071C201.437 124.181 199.286 122.949 198.187 120.856C197.088 118.764 197.302 116.297 198.738 114.421L208.333 101.906C209.486 100.401 211.238 99.5417 213.135 99.5479C215.035 99.5533 216.779 100.424 217.924 101.936L226.751 113.599C227.565 114.675 227.982 115.928 227.982 117.197V117.197Z" fill="#E6E6E6"/>
<path d="M330.854 100.923C321.474 98.6816 311.451 100.71 303.433 105.994C295.024 111.535 289.457 120.407 287.572 130.237C283.685 150.515 295.562 170.774 314.334 178.845C334.068 187.33 357.544 181.636 371.875 165.889C378.978 158.084 383.417 148.209 384.754 137.767C386.07 127.48 384.569 115.612 378.324 107.026C372.13 98.5103 361.816 95.6525 351.855 94.2569C342.19 92.9028 329.368 92.3142 324.142 102.519C323.146 104.465 322.677 106.561 322.788 108.743C322.865 110.262 325.242 110.271 325.165 108.743C324.923 103.972 328.112 99.9853 332.199 97.8409C336.937 95.3557 342.65 95.5661 347.816 96.1201C357.143 97.1201 367.732 98.904 374.458 106.049C381.158 113.167 383.166 124.014 382.751 133.462C382.316 143.324 378.91 153.031 372.941 160.918C361.162 176.483 340.554 183.887 321.596 178.859C303.123 173.96 302.882 163.025 303.187 143.659C303.349 133.328 293.566 117.066 301.553 110.333C309.374 103.742 320.214 100.818 330.222 103.209C331.709 103.564 332.343 101.279 330.854 100.923L330.854 100.923Z" fill="#269E96"/>
</g>
<defs>
<clipPath id="clip0_4708_455">
<rect width="620" height="633" fill="white"/>
</clipPath>
</defs>
</svg>
