<svg width="94" height="89" viewBox="0 0 94 89" fill="none" xmlns="http://www.w3.org/2000/svg">
<path d="M93 39.7576C88.1125 45.0269 88.325 22 82 22C75.675 22 76.6125 67 70 67C63.3875 67 64.8942 11.0361 59 11C53.1058 10.9639 52.825 37 46.5 37C40.175 37 40.7123 33.4344 35.7875 33.4344C30.325 33.4344 28.3125 57.6733 24 56.6195C19.6875 55.5656 17.1 30.2728 12.5 30.2728C7.90001 30.2728 4.7375 46.0808 1 46.0808" stroke="#3BA7F5"/>
<g opacity="0.1">
<path d="M93 89V3.69549e-06" stroke="#26233C"/>
<path d="M70 89V3.69549e-06" stroke="#26233C"/>
<path d="M47 89V3.69549e-06" stroke="#26233C"/>
<path d="M1 89V3.69549e-06" stroke="#26233C"/>
<path d="M24 89V3.69549e-06" stroke="#26233C"/>
</g>
</svg>
