<svg width="94" height="89" viewBox="0 0 94 89" fill="none" xmlns="http://www.w3.org/2000/svg">
<path d="M1 49.2424C5.8875 43.9731 6.175 6.03392 12.5 6.03391C18.825 6.03389 16.8875 81 23.5 81C30.1125 81 30.1808 41.8293 36.075 41.8653C41.9692 41.9014 41.175 63.5 47.5 63.5C53.825 63.5 53.2877 55.5656 58.2125 55.5656C63.675 55.5656 65.6875 31.3267 70 32.3806C74.3125 33.4344 76.9 58.7272 81.5 58.7272C86.1 58.7272 89.2625 42.9192 93 42.9192" stroke="#B93BF5"/>
<g opacity="0.1">
<path d="M1 0V89" stroke="#26233C"/>
<path d="M24 0V89" stroke="#26233C"/>
<path d="M47 0V89" stroke="#26233C"/>
<path d="M93 0V89" stroke="#26233C"/>
<path d="M70 0V89" stroke="#26233C"/>
</g>
</svg>
