<svg width="94" height="89" viewBox="0 0 94 89" fill="none" xmlns="http://www.w3.org/2000/svg">
<path d="M93 49.2424C88.1125 43.9731 87.825 6.03389 81.5 6.03387C75.175 6.03386 76.6125 70.3197 70 70.3197C63.3875 70.3197 63.8192 41.8293 57.925 41.8653C52.0308 41.9014 53.325 82.9661 47 82.9661C40.675 82.9661 40.7123 55.5656 35.7875 55.5656C30.325 55.5656 28.3125 31.3267 24 32.3805C19.6875 33.4344 17.1 58.7272 12.5 58.7272C7.90001 58.7272 4.7375 42.9192 1 42.9192" stroke="#F5CC3B"/>
<g opacity="0.1">
<path d="M93 0V89" stroke="#26233C"/>
<path d="M70 0V89" stroke="#26233C"/>
<path d="M47 0V89" stroke="#26233C"/>
<path d="M1 0V89" stroke="#26233C"/>
<path d="M24 0V89" stroke="#26233C"/>
</g>
</svg>
