<svg width="580" height="350" viewBox="0 0 580 350" fill="none" xmlns="http://www.w3.org/2000/svg">
<g clip-path="url(#clip0_4725_329)">
<path d="M30.261 348.72C30.2222 348.549 26.4697 331.424 34.1334 317.2C41.797 302.976 58.1558 296.704 58.3201 296.642L59.0678 296.361L59.2444 297.141C59.2832 297.312 63.0357 314.438 55.3721 328.661C47.7088 342.885 31.3497 349.157 31.1853 349.219L30.4373 349.5L30.261 348.72ZM58.0424 298.264C54.7656 299.675 41.8331 305.849 35.3605 317.862C28.8872 329.876 30.8402 344.084 31.463 347.597C34.7384 346.19 47.6659 340.025 54.1449 327.999C60.6178 315.986 58.6655 301.78 58.0424 298.264Z" fill="#F1F1F1"/>
<path d="M49.5155 323.672C35.7435 331.964 30.4395 348.435 30.4395 348.435C30.4395 348.435 47.4642 351.462 61.2362 343.169C75.0082 334.877 80.3122 318.406 80.3122 318.406C80.3122 318.406 63.2875 315.38 49.5155 323.672Z" fill="#F1F1F1"/>
<path d="M258.075 190.739C258.285 189.654 258.255 188.536 257.986 187.464C257.718 186.392 257.218 185.392 256.521 184.534C255.825 183.677 254.949 182.982 253.956 182.5C252.962 182.018 251.875 181.759 250.771 181.743L244.394 165.692L233.702 167.192L243.026 189.732C243.122 191.591 243.895 193.349 245.2 194.675C246.504 196 248.249 196.801 250.104 196.925C251.959 197.049 253.795 196.488 255.264 195.348C256.733 194.208 257.733 192.568 258.075 190.739Z" fill="#9F616A"/>
<path d="M238.377 185.099L235.064 177.193L214.42 137.864L215.542 65.0918L215.758 65.0632C228.968 63.3165 237.906 124.231 238.28 126.826L251.323 171.471L254.428 181.312L238.377 185.099Z" fill="#269E96"/>
<path d="M206.656 338.55L216.694 338.55L221.468 299.803L206.654 299.803L206.656 338.55Z" fill="#9F616A"/>
<path d="M204.095 335.271L223.863 335.27H223.864C227.205 335.27 230.409 336.598 232.771 338.963C235.133 341.327 236.461 344.533 236.461 347.877V348.287L204.096 348.288L204.095 335.271Z" fill="#2F2E41"/>
<path d="M114.365 323.245L122.601 328.988L148.654 299.932L136.499 291.455L114.365 323.245Z" fill="#9F616A"/>
<path d="M114.138 319.089L130.356 330.4L130.357 330.4C133.098 332.312 134.968 335.235 135.555 338.527C136.143 341.818 135.4 345.209 133.49 347.952L133.256 348.288L106.702 329.77L114.138 319.089Z" fill="#2F2E41"/>
<path d="M201.14 329.443L200.706 256.756L194.39 211.051L182.615 251.244L182.592 251.277L139.922 313.275L123.319 304.856L123.41 304.639C124.424 302.224 148.334 245.496 154.76 245.496C155.322 245.535 155.884 245.437 156.399 245.211C156.914 244.984 157.367 244.636 157.717 244.195C159.603 241.675 158.067 236.326 158.052 236.272C156.212 228.637 160.838 226.037 161.759 225.603L164.237 174.408L164.494 174.426L231.672 179.142L228.853 243.149L222.791 327.011L222.583 327.034L201.14 329.443Z" fill="#2F2E41"/>
<path d="M232.698 190.486L232.408 190.462L160.159 184.634L160.338 160.709L163.874 98.2422L163.894 98.1988L178.295 66.9098L188.503 62.2836L203.397 61.4991L203.433 61.5083L217.025 64.8785L231.165 166.462L232.698 190.486Z" fill="#269E96"/>
<path d="M205.731 53.4804C214.949 48.4372 218.337 36.87 213.298 27.6443C208.258 18.4187 196.701 15.0282 187.482 20.0714C178.264 25.1146 174.876 36.6817 179.915 45.9074C184.955 55.133 196.512 58.5236 205.731 53.4804Z" fill="#9F616A"/>
<path d="M177.476 41.5547V34.1372C177.476 34.1372 171.499 27.0922 178.074 25.3175C178.074 25.3175 179.867 7.57107 195.407 15.8528C195.407 15.8528 216.924 12.3035 214.533 24.726C214.533 24.726 219.912 21.4829 218.119 29.7646L214.651 43.1049C214.651 43.1049 216.326 34.2927 210.947 33.1095L207.958 31.3349C207.958 31.3349 199.591 39.6166 187.039 29.5602C187.039 29.5602 181.66 28.2753 182.258 33.5993C182.855 38.9232 177.476 41.5547 177.476 41.5547Z" fill="#2F2E41"/>
<path d="M194.626 172.62C194.638 171.515 194.408 170.421 193.951 169.414C193.495 168.408 192.824 167.514 191.985 166.795C191.146 166.077 190.16 165.551 189.097 165.255C188.033 164.959 186.917 164.9 185.828 165.082L176.676 150.437L166.426 153.832L179.641 174.333C180.068 176.143 181.144 177.734 182.665 178.804C184.186 179.874 186.047 180.348 187.894 180.137C189.741 179.926 191.446 179.044 192.687 177.659C193.928 176.273 194.618 174.48 194.626 172.62Z" fill="#9F616A"/>
<path d="M170.987 168.003L154.43 134.359L154.444 134.278C154.511 133.905 161.176 96.868 166.274 83.2542C171.404 69.5543 178.425 66.8036 178.722 66.6933L178.87 66.6381L185.166 72.6821L176.444 130.942L185.845 159.041L170.987 168.003Z" fill="#269E96"/>
<path d="M580 0.5H547.941V32.5851H580V0.5Z" fill="#F1F1F1"/>
<path d="M329.101 125.353H297.041V157.438H329.101V125.353Z" fill="#F1F1F1"/>
<path d="M315.035 143.378H568.496V14.962H315.035V143.378Z" fill="white"/>
<path d="M570.587 145.471H312.945V12.8694H570.587V145.471ZM317.126 141.286H566.405V17.0544H317.126V141.286Z" fill="#E5E5E5"/>
<path d="M540.468 60.0081H345.459V66.4803H540.468V60.0081Z" fill="#E5E5E5"/>
<path d="M540.468 75.704H345.459V82.1762H540.468V75.704Z" fill="#E5E5E5"/>
<path d="M540.468 98.8796H504.227V104.496H540.468V98.8796Z" fill="#269E96"/>
<path d="M266.232 349.472H0.696943C0.512102 349.472 0.334831 349.398 0.204129 349.268C0.0734272 349.137 0 348.959 0 348.774C0 348.589 0.0734272 348.412 0.204129 348.281C0.334831 348.15 0.512102 348.077 0.696943 348.077H266.232C266.417 348.077 266.594 348.15 266.725 348.281C266.856 348.412 266.929 348.589 266.929 348.774C266.929 348.959 266.856 349.137 266.725 349.268C266.594 349.398 266.417 349.472 266.232 349.472Z" fill="#CBCBCB"/>
</g>
<defs>
<clipPath id="clip0_4725_329">
<rect width="580" height="349" fill="white" transform="translate(0 0.5)"/>
</clipPath>
</defs>
</svg>
