<svg width="570" height="437" viewBox="0 0 570 437" fill="none" xmlns="http://www.w3.org/2000/svg">
<ellipse cx="292.98" cy="218.5" rx="212.61" ry="218.5" fill="#18DDD3" fill-opacity="0.17"/>
<g clip-path="url(#clip0_4717_1152)">
<path d="M71.0153 371.791L79.8322 372.006L76.5019 399.712L70.5273 399.566L71.0153 371.791Z" fill="#FFB6B6"/>
<path d="M91.0251 412.433L91.025 412.432C91.025 411.68 90.6459 411 90.0602 410.701L83.48 407.346L78.9938 396.606L78.9259 385.786L69.6815 384.664L68.3445 391.557C68.3445 391.557 71.0973 391.133 67.6987 394.178C64.3 397.224 65.9365 403.182 65.9365 403.182L65.1953 414.319H71.3129L71.6413 407.393C76.3994 409.477 77.5664 414.319 77.5664 414.319H89.4253C90.3088 414.319 91.0251 413.474 91.0251 412.433H91.0251H91.0251Z" fill="#2F2E41"/>
<path d="M83.9302 372.096L92.7471 372.311L89.4168 400.017L83.4423 399.871L83.9302 372.096Z" fill="#FFB6B6"/>
<path d="M103.94 412.737H103.94C103.94 411.985 103.561 411.305 102.975 411.006L96.395 407.651L91.9088 396.911L91.8408 386.091L82.5964 384.969L81.2595 391.862C81.2595 391.862 84.0122 391.438 80.6136 394.483C77.2149 397.529 78.8514 403.487 78.8514 403.487L78.1102 414.624H84.2278L84.5562 407.698C89.3143 409.782 90.4813 414.624 90.4813 414.624H102.34C103.224 414.624 103.94 413.779 103.94 412.737L103.94 412.737H103.94Z" fill="#2F2E41"/>
<path d="M73.8189 209.587L63.8237 234.222C60.4919 242.433 59.436 251.439 60.7739 260.234L65.6318 381.257H84.8386L93.2222 273.486L94.8766 316.057L75.649 376.71H94.56L118.834 316.057L120.633 269.353L112.009 233.112L73.8189 209.587L73.8189 209.587Z" fill="#2F2E41"/>
<path d="M344.605 104.176V42.643C344.605 22.9742 329.157 7.02942 310.102 7.02942H183.8C164.745 7.02909 149.298 22.9736 149.297 42.6425V380.219C149.297 399.888 164.745 415.833 183.8 415.833H310.101C329.156 415.833 344.603 399.888 344.603 380.219V147.977H344.603C345.803 147.977 346.776 146.973 346.776 145.734L346.778 106.42C346.778 105.181 345.805 104.176 344.605 104.176L344.605 104.176V104.176Z" fill="#3F3D56"/>
<path d="M338.125 39.6819V382.028C317.962 380.749 328.218 408.173 311.967 409.034H183.074C168.621 409.037 156.902 396.946 156.898 382.028V39.6819C156.902 24.7641 168.62 12.6737 183.072 12.6756H192.578C189.989 19.2465 210.881 21.3843 212.483 21.3864H278.495C285.367 21.3774 301.947 14.207 301.343 12.6756H311.962C326.409 12.6781 338.12 24.7646 338.125 39.6767L338.125 39.6819H338.125Z" fill="white"/>
<path d="M148.281 111.714C147.362 111.714 146.615 112.485 146.615 113.434V127.197C146.615 128.146 147.362 128.917 148.281 128.917C149.201 128.917 149.948 128.146 149.948 127.197V113.434C149.948 112.485 149.201 111.714 148.281 111.714Z" fill="#3F3D56"/>
<path d="M148.281 153.002C147.362 153.002 146.615 153.774 146.615 154.723V181.388C146.615 182.337 147.362 183.109 148.281 183.109C149.201 183.109 149.948 182.337 149.948 181.388V154.723C149.948 153.774 149.201 153.002 148.281 153.002Z" fill="#3F3D56"/>
<path d="M148.281 190.85C147.362 190.85 146.615 191.622 146.615 192.571V219.236C146.615 220.185 147.362 220.957 148.281 220.957C149.201 220.957 149.948 220.185 149.948 219.236V192.571C149.948 191.622 149.201 190.85 148.281 190.85Z" fill="#3F3D56"/>
<path d="M541.398 394.073L533.489 399.665L508.828 370.837L520.501 362.584L541.398 394.073Z" fill="#FFB6B6"/>
<path d="M514.179 413.049C514.217 413.651 515.004 415.125 515.335 415.622C516.35 417.153 518.375 417.543 519.858 416.495L544.35 399.175C545.361 398.46 545.62 397.034 544.927 395.99L544.228 394.937C544.228 394.937 543.34 390.917 538.258 388.782C538.258 388.782 537.184 394.027 529.377 392.522L526.316 390.933L521.382 405.391L516.363 409.964C515.264 410.964 514.085 411.54 514.179 413.049L514.179 413.049L514.179 413.049Z" fill="#2F2E41"/>
<path d="M483.087 408.918L473.5 408.917L468.94 370.749L480.674 372.257L483.087 408.918Z" fill="#FFB6B6"/>
<path d="M450.242 408.694C449.943 409.213 449.786 410.887 449.786 411.491C449.786 413.346 451.242 414.849 453.039 414.849H482.728C483.954 414.849 484.948 413.824 484.948 412.558V411.282C484.948 411.282 486.417 407.448 483.393 402.721C483.393 402.721 479.635 406.422 474.019 400.626L472.363 397.529L460.376 406.578L453.732 407.422C452.278 407.607 450.99 407.394 450.242 408.694H450.242V408.694Z" fill="#2F2E41"/>
<path d="M449.475 263.867L450.196 272.867L448.761 280.025L451.375 287.571L454.573 327.469L471.239 396.256L483.965 399.021L477.856 330.311L482.595 273.636L449.475 263.867Z" fill="#2F2E41"/>
<path d="M503.552 224.792L454.883 225.49L449.475 263.865L482.594 279.913L481.538 334.72L518.423 389.834L538.069 378.248L505.15 331.444L514.368 253.399L503.552 224.792H503.552Z" fill="#2F2E41"/>
<path d="M467.524 134.573L458.938 145.948L462.994 233.164L494.764 232.467L500.172 156.414L493.413 136.877L490.967 132.499L488.041 126.83L469.288 128.213L467.525 134.573H467.524V134.573Z" fill="#E6E6E6"/>
<path d="M454.845 188.51L456.562 206.335L454.453 226.846L451.816 232.407L445.788 254.53C445.788 254.53 439.636 264.205 453.155 264.901C466.675 265.596 510.988 261.07 510.988 261.07C510.988 261.07 516.513 260.929 514.105 249C510.215 242.1 512.723 232.377 512.723 232.377L507.608 212.926L508.96 194.785L518.424 147.339C510.019 140.521 500.605 135.641 490.371 132.337L481.407 156.665L468.062 134.43L462.992 138.268C456.154 140.118 450.137 142.965 445.377 147.338L454.845 188.51Z" fill="#2F2E41"/>
<path d="M294.396 146.19H198.997C192.458 146.183 187.159 140.713 187.151 133.963V91.6359C187.159 84.8862 192.458 79.4164 198.997 79.4088C229.438 70.7034 261.365 71.5192 294.396 79.4088C300.935 79.4168 306.234 84.8865 306.241 91.6359V133.963C306.234 140.713 300.935 146.182 294.396 146.19H294.396Z" fill="#F2F2F2"/>
<path d="M304.115 190.551H189.279C188.105 190.55 187.153 189.568 187.152 188.356V158.953C187.154 157.742 188.105 156.76 189.279 156.758H304.115C305.289 156.76 306.24 157.742 306.242 158.953V188.357C306.24 189.569 305.289 190.55 304.115 190.552V190.551ZM189.279 157.636C188.574 157.637 188.003 158.226 188.003 158.953V188.357C188.003 189.084 188.574 189.673 189.279 189.674H304.115C304.82 189.673 305.39 189.084 305.391 188.357V158.953C305.39 158.226 304.82 157.637 304.115 157.636H189.279Z" fill="#E6E6E6"/>
<path d="M224.793 167.506C223.971 167.524 223.318 168.226 223.336 169.075C223.352 169.898 223.995 170.562 224.793 170.579H294.97C295.792 170.612 296.484 169.95 296.515 169.102C296.546 168.254 295.906 167.54 295.084 167.507H224.793V167.506Z" fill="#E6E6E6"/>
<path d="M224.793 176.728C223.971 176.746 223.318 177.448 223.336 178.297C223.352 179.12 223.995 179.783 224.793 179.801H294.97C295.792 179.833 296.484 179.172 296.515 178.324C296.546 177.476 295.906 176.762 295.084 176.729H224.793V176.728Z" fill="#E6E6E6"/>
<path d="M205.079 179.802C208.368 179.802 211.034 177.05 211.034 173.656C211.034 170.261 208.368 167.509 205.079 167.509C201.79 167.509 199.124 170.261 199.124 173.656C199.124 177.05 201.79 179.802 205.079 179.802Z" fill="#E6E6E6"/>
<path d="M304.115 334.873H189.279C188.105 334.872 187.153 333.89 187.152 332.678V303.276C187.154 302.064 188.105 301.082 189.279 301.081H304.115C305.289 301.082 306.24 302.064 306.242 303.276V332.679C306.24 333.891 305.289 334.873 304.115 334.874V334.873ZM189.279 301.958C188.574 301.959 188.003 302.548 188.003 303.276V332.679C188.003 333.406 188.574 333.995 189.279 333.996L291.07 332.961C291.775 332.96 302.456 328.848 302.456 328.121L305.391 303.276C305.39 302.548 304.82 301.959 304.115 301.958H189.279Z" fill="#E6E6E6"/>
<path d="M224.793 316.211C223.97 316.193 223.29 316.867 223.273 317.715C223.255 318.564 223.908 319.266 224.73 319.284C224.751 319.285 224.772 319.285 224.793 319.284H294.97C295.792 319.317 296.483 318.655 296.515 317.807C296.546 316.959 295.906 316.245 295.084 316.213H224.793V316.211V316.211Z" fill="#E6E6E6"/>
<path d="M205.079 324.124C208.368 324.124 211.034 321.372 211.034 317.978C211.034 314.583 208.368 311.831 205.079 311.831C201.79 311.831 199.124 314.583 199.124 317.978C199.124 321.372 201.79 324.124 205.079 324.124Z" fill="#E6E6E6"/>
<path d="M304.115 274.035H189.279C188.105 274.034 187.153 273.052 187.152 271.84V242.437C187.154 241.226 188.105 240.244 189.279 240.242H304.115C305.289 240.244 306.24 241.226 306.242 242.437V271.841C306.24 273.052 305.289 274.034 304.115 274.036V274.035ZM189.279 241.12C188.574 241.121 188.003 241.71 188.003 242.437V271.841C188.003 272.568 188.574 273.157 189.279 273.158L291.07 272.122C291.775 272.122 302.456 268.01 302.456 267.283L305.391 242.437C305.39 241.71 304.82 241.121 304.115 241.12H189.279Z" fill="#E6E6E6"/>
<path d="M224.793 255.373C223.97 255.355 223.29 256.028 223.273 256.877C223.255 257.726 223.908 258.428 224.73 258.446C224.751 258.446 224.772 258.446 224.793 258.446H294.97C295.792 258.478 296.483 257.817 296.515 256.969C296.546 256.121 295.906 255.407 295.084 255.374H224.793V255.373V255.373Z" fill="#E6E6E6"/>
<path d="M205.079 263.286C208.368 263.286 211.034 260.534 211.034 257.139C211.034 253.745 208.368 250.993 205.079 250.993C201.79 250.993 199.124 253.745 199.124 257.139C199.124 260.534 201.79 263.286 205.079 263.286Z" fill="#E6E6E6"/>
<path d="M476.992 126.024C486.258 126.024 493.77 118.27 493.77 108.706C493.77 99.1416 486.258 91.3882 476.992 91.3882C467.727 91.3882 460.215 99.1416 460.215 108.706C460.215 118.27 467.727 126.024 476.992 126.024Z" fill="#FFB6B6"/>
<path d="M489.315 122.935C490.239 123.097 491.324 120.785 492.36 118.534C494.531 113.82 495.91 110.823 496.015 106.587C496.105 102.977 495.133 103.924 494.188 95.8979C493.876 93.2506 489.494 93.2557 488.603 91.9986C487.096 89.8752 489.407 88.9995 485.66 87.7239C478.64 85.3348 475.465 89.0463 471.007 89.366C470.895 89.3741 468.684 91.6051 467.45 91.7204C465.288 91.9226 462.168 91.5749 460.769 88.1739C459.461 84.9939 458.595 94.2864 459.764 95.4364C460.756 96.4128 462.468 98.8635 462.512 99.0417C462.561 99.2435 458.442 94.5326 457.754 96.4739C457.259 97.8711 458.817 105.059 460.075 105.329C461.128 105.555 463.702 101.975 463.121 103.443C461.774 106.849 469.873 109.022 479.568 102.186C479.912 101.943 479.587 102.33 480.786 105.329C482.299 109.113 482.64 109.318 482.614 110.36C482.557 112.615 480.916 113.279 481.396 114.761C481.784 115.961 483.302 116.89 484.441 116.647C485.727 116.373 485.947 114.732 486.878 114.761C487.675 114.786 488.621 116.025 488.705 117.276C488.883 119.911 485.104 120.636 484.441 124.192C484.068 126.2 488.465 122.785 489.315 122.935Z" fill="#2F2E41"/>
<path d="M527.283 261.36C527.355 259.421 526.977 257.492 526.179 255.735L527.907 235.524L518.564 234.958L517.817 255.523C516.936 257.237 516.465 259.145 516.444 261.085C516.327 265.94 518.658 269.937 521.65 270.015C524.642 270.092 527.164 266.219 527.281 261.365L527.283 261.36Z" fill="#FFB6B6"/>
<path d="M507.407 179.865L514.774 203.371L516.89 251.378L529.222 251.118L530.179 198.532C530.179 198.532 524.033 159.674 521.975 150.941C519.917 142.207 500.939 145.444 500.939 145.444L507.407 179.865V179.865V179.865Z" fill="#2F2E41"/>
<path d="M201.816 118.582C205.3 119.776 208.953 120.985 212.672 120.781C214.365 120.688 215.993 120.272 217.528 119.53C219.103 118.77 220.542 117.738 222.135 117.018C227.993 114.372 233.802 118.893 239.265 120.589C241.99 121.436 244.856 121.639 247.522 120.46C250.468 119.157 252.69 116.671 255.115 114.595C260.552 109.941 267.647 107.432 274.704 107.622C282.446 107.83 289.939 111.36 295.271 117.133C295.718 117.617 296.427 116.883 295.981 116.4C291.322 111.354 285.044 107.953 278.358 106.922C271.659 105.889 264.704 107.269 258.813 110.713C255.832 112.456 253.441 114.841 250.815 117.068C248.257 119.235 245.414 120.633 242.043 120.172C236.234 119.378 231.238 114.758 225.214 115.177C221.367 115.445 218.619 118.432 214.999 119.385C210.68 120.521 206.166 118.981 202.083 117.582C201.468 117.371 201.205 118.372 201.816 118.582L201.816 118.582V118.582Z" fill="#3F3D56"/>
<path d="M212.722 124.108C214.777 124.108 216.443 122.388 216.443 120.267C216.443 118.145 214.777 116.425 212.722 116.425C210.666 116.425 209 118.145 209 120.267C209 122.388 210.666 124.108 212.722 124.108Z" fill="#269E96"/>
<path d="M244.847 124.278C246.902 124.278 248.568 122.558 248.568 120.437C248.568 118.315 246.902 116.595 244.847 116.595C242.791 116.595 241.125 118.315 241.125 120.437C241.125 122.558 242.791 124.278 244.847 124.278Z" fill="#269E96"/>
<path d="M277.471 111.248C279.526 111.248 281.192 109.528 281.192 107.407C281.192 105.285 279.526 103.566 277.471 103.566C275.416 103.566 273.75 105.285 273.75 107.407C273.75 109.528 275.416 111.248 277.471 111.248Z" fill="#269E96"/>
<path d="M61.5427 240.669C50.5404 273.004 64.5584 298.479 61.6494 282.046C59.2182 268.312 100.645 226.52 113.115 235.138C112.854 233.743 104.928 208.599 104.151 208.483C105.238 205.657 103.723 205.63 103.661 204.183C103.426 198.591 104.685 192.787 107.137 186.813C108.745 182.197 108.773 178.232 107.215 175.034C105.875 172.406 103.623 170.397 100.909 169.409L92.7381 159.223C90.6095 156.571 87.4703 150.85 84.1348 150.872L66.2298 150.212C65.7181 149.894 59.4309 155.475 53.3092 158.213C46.6697 161.186 48.0394 169.3 48.0561 169.403L48.0716 169.5L48.1446 169.569L57.9038 199.219L66.7214 207.749C66.2747 209.086 66.3865 210.09 67.2231 210.666C66.0222 211.583 60.68 239.016 61.5427 239.977V240.669L61.5427 240.669Z" fill="#269E96"/>
<path d="M153.546 181.988C152.214 182.536 151.029 183.406 150.09 184.524L135.911 189.541L138.421 196.435L152.534 190.603C153.964 190.707 155.398 190.455 156.714 189.869C160.028 188.45 162.005 185.535 161.129 183.359C160.253 181.182 156.859 180.568 153.546 181.988V181.988Z" fill="#FFB6B6"/>
<path d="M77.9086 159.863L110.255 204.931L148.172 194.153L146.524 183.944L117.651 189.588L101.544 164.028C96.2838 153.533 85.9171 151.42 77.9086 159.862V159.863Z" fill="#269E96"/>
<path d="M310.23 387.121H295.469C292.891 387.121 290.793 384.956 290.793 382.295C287.995 374.448 287.642 367.408 290.793 361.528C290.793 358.867 292.891 356.702 295.469 356.702C299.834 353.434 304.923 354.426 310.23 356.702C312.808 356.702 314.905 358.867 314.905 361.528C313.114 368.181 313.244 375.123 314.905 382.295C314.905 384.956 312.808 387.121 310.23 387.121Z" fill="#269E96"/>
<path d="M308.802 365.944H296.88C296.469 365.944 296.135 365.6 296.135 365.175C296.135 364.75 296.469 364.406 296.88 364.406H308.802C309.214 364.406 309.547 364.75 309.547 365.175C309.547 365.6 309.214 365.944 308.802 365.944Z" fill="white"/>
<path d="M308.802 372.096H296.88C296.469 372.096 296.135 371.752 296.135 371.327C296.135 370.902 296.469 370.558 296.88 370.558H308.802C309.214 370.558 309.547 370.902 309.547 371.327C309.547 371.752 309.214 372.096 308.802 372.096Z" fill="white"/>
<path d="M308.802 378.248H296.88C296.469 378.248 296.135 377.904 296.135 377.479C296.135 377.054 296.469 376.71 296.88 376.71H308.802C309.214 376.71 309.547 377.054 309.547 377.479C309.547 377.904 309.214 378.248 308.802 378.248Z" fill="white"/>
<path d="M570 415.081H0V416.244H570V415.081Z" fill="#E6E6E6"/>
<path d="M444.866 259.748C445.35 264.577 448.157 268.235 451.135 267.917C454.112 267.598 456.133 263.425 455.649 258.595C455.481 256.662 454.867 254.798 453.858 253.161L451.557 232.718L442.285 234.037L445.538 254.046C444.876 255.862 444.645 257.816 444.864 259.743L444.866 259.748Z" fill="#FFB6B6"/>
<path d="M458.509 176.894L462.351 142.056C462.351 142.056 443.187 140.36 441.796 149.233C440.406 158.106 437.22 197.34 437.22 197.34L442.154 249.689L454.469 248.954L452.944 200.922L458.509 176.894V176.894Z" fill="#2F2E41"/>
<path d="M88.3064 146.375L62.4135 148.808L61.6494 121.03L89.858 120.203L88.3064 146.375Z" fill="#2F2E41"/>
<path d="M75.213 142.646C82.7178 142.646 88.8016 136.366 88.8016 128.62C88.8016 120.873 82.7178 114.594 75.213 114.594C67.7082 114.594 61.6244 120.873 61.6244 128.62C61.6244 136.366 67.7082 142.646 75.213 142.646Z" fill="#FFB6B6"/>
<path d="M86.1441 114.953C86.0484 111.473 81.8529 111.096 78.5841 110.237L75.6199 108.649C72.7104 107.884 69.6234 108.422 67.1181 110.13L59.2141 115.072C55.6651 117.491 55.1013 121.401 53.6581 125.531L51.046 131.576C49.6253 135.641 51.5027 141.027 52.9388 145.086L53.5406 146.787L52.5996 152.354L69.0711 151.56L70.5352 142.966L67.7236 139.704C66.726 138.546 66.645 136.828 67.5292 135.576H67.5292C70.7097 131.072 70.1202 124.761 70.1202 124.761L74.1453 127.028C76.79 127.4 79.1469 127.359 81.2205 126.912C83.5012 126.42 85.4393 125.436 87.0411 123.97L88.4762 128.952C88.8459 135.153 87.7233 136.799 82.3689 142.864L91.7585 148.949L91.4112 145.656C90.5851 137.823 93.1037 131.646 92.7506 125.271C92.5065 120.863 89.9666 116.935 86.1441 114.953H86.1441H86.1441Z" fill="#2F2E41"/>
<path d="M88.3932 233.223C87.0665 232.663 85.6291 232.438 84.2012 232.568L70.6271 226.006L67.7913 232.765L81.8659 238.694C82.8249 239.794 84.0251 240.641 85.3662 241.164C88.7044 242.52 92.0889 241.842 92.924 239.649C93.7591 237.455 91.7314 234.579 88.3932 233.223H88.3932Z" fill="#FFB6B6"/>
<path d="M48.8952 163.061L41.8164 218.672L76.339 238.118L82.0268 229.593L57.4637 212.943L63.0876 183.009C66.3701 171.69 60.3379 162.734 48.8956 163.061L48.8952 163.061Z" fill="#269E96"/>
</g>
<defs>
<clipPath id="clip0_4717_1152">
<rect width="570" height="410.054" fill="white" transform="translate(0 7.02942)"/>
</clipPath>
</defs>
</svg>
