<svg width="120" height="120" viewBox="0 0 120 120" fill="none" xmlns="http://www.w3.org/2000/svg">
<circle cx="60" cy="60" r="58.5" stroke="#269E96" stroke-width="3" stroke-dasharray="11 11"/>
<path d="M83.8232 44.4802H79.4626V36.5371C79.4626 35.8658 78.9161 35.3214 78.2422 35.3214C77.5683 35.3214 77.0219 35.8658 77.0219 36.5371V44.4802H72.5637C71.8931 44.4888 71.3521 45.0278 71.3434 45.6959V74.8736C71.3434 75.545 71.8893 76.0893 72.5637 76.0893H76.9733V83.4484H76.9728C76.9728 84.1197 77.5192 84.6641 78.1931 84.6641C78.8676 84.6641 79.4135 84.1197 79.4135 83.4484V76.1214H83.8231C84.497 76.1214 85.0434 75.5776 85.0434 74.9057V45.728C85.0478 45.4012 84.9219 45.0865 84.6931 44.8525C84.4643 44.6181 84.151 44.4846 83.8231 44.4802L83.8232 44.4802ZM82.6028 73.6579H73.7842V46.9116H82.6034L82.6028 73.6579Z" fill="#5FC6C1"/>
<path d="M65.5668 48.0955H61.1572V36.5378C61.1572 35.8664 60.6107 35.322 59.9368 35.322C59.2629 35.322 58.7165 35.8664 58.7165 36.5378V48.0955H54.3069C53.633 48.0955 53.0865 48.6398 53.0865 49.3112V78.4889C53.0953 79.1565 53.6368 79.6959 54.3069 79.7046H58.7165V83.449C58.7165 84.1203 59.2629 84.6647 59.9368 84.6647C60.6107 84.6647 61.1572 84.1203 61.1572 83.449V79.7371H65.5668C66.2369 79.7285 66.7784 79.189 66.7871 78.5214V49.3437C66.7958 49.0153 66.6711 48.6979 66.4412 48.4628C66.2113 48.2278 65.8958 48.0955 65.5668 48.0955ZM64.3464 77.2732H55.5273V50.5269H64.3464V77.2732Z" fill="#5FC6C1"/>
<path d="M47.3089 45.032H42.8999V36.5381C42.8999 35.8668 42.3534 35.3224 41.6795 35.3224C41.0051 35.3224 40.4592 35.8668 40.4592 36.5381V45.032H36.0496C35.3757 45.032 34.8292 45.5764 34.8292 46.2478V75.4255C34.8379 76.0936 35.3789 76.6325 36.0496 76.6412H40.4102V83.4493C40.4102 84.1207 40.9566 84.6651 41.6306 84.6651C42.3045 84.6651 42.8509 84.1207 42.8509 83.4493V76.6412H47.2605C47.9306 76.6325 48.4721 76.0936 48.4808 75.4255V46.2478C48.4814 45.5949 47.9637 45.0581 47.3089 45.032ZM46.0885 74.2097H37.2699V47.4635H46.0891L46.0885 74.2097Z" fill="#5FC6C1"/>
</svg>
