<svg width="120" height="120" viewBox="0 0 120 120" fill="none" xmlns="http://www.w3.org/2000/svg">
<circle cx="60" cy="60" r="58.5" stroke="#269E96" stroke-width="3" stroke-dasharray="11 11"/>
<path d="M91.6829 45.2562L83.3269 53.5812C82.4136 53.0056 81.3364 52.6681 80.1783 52.6681C78.5355 52.6681 77.0476 53.3405 75.9745 54.421L69.2698 50.2674C69.4799 49.6635 69.5996 49.0183 69.5996 48.3448C69.5996 45.0959 66.9464 42.4519 63.6848 42.4519C60.4233 42.4519 57.77 45.0954 57.77 48.3448C57.77 50.2804 58.7159 51.9951 60.1659 53.0698L54.5347 65.8096C54.1697 65.739 53.7931 65.6992 53.4076 65.6992C52.103 65.6992 50.8998 66.1278 49.9202 66.8431L43.5731 61.3446C44.0216 60.5147 44.2769 59.5666 44.2769 58.5598C44.2769 55.3109 41.6236 52.6669 38.3621 52.6669C35.1005 52.6669 32.4472 55.3104 32.4472 58.5598C32.4472 59.7136 32.787 60.7868 33.3637 61.6968L26.5345 68.5008C26.024 69.0094 26.024 69.8345 26.5345 70.3432C26.7897 70.5975 27.1248 70.7252 27.4588 70.7252C27.7934 70.7252 28.128 70.5975 28.3832 70.3432L35.2124 63.5392C36.1258 64.1148 37.2039 64.4528 38.3621 64.4528C39.6678 64.4528 40.8726 64.0237 41.8521 63.3063L48.1976 68.8043C47.748 69.6347 47.4922 70.5844 47.4922 71.5917C47.4922 74.8407 50.1455 77.4847 53.407 77.4847C56.6686 77.4847 59.3218 74.8412 59.3218 71.5917C59.3218 69.6557 58.3754 67.9398 56.9243 66.8651L62.5555 54.1263C62.9216 54.1969 63.2987 54.2367 63.6847 54.2367C65.3291 54.2367 66.8176 53.5633 67.8916 52.4807L74.5947 56.6333C74.3841 57.2376 74.2633 57.8844 74.2633 58.5594C74.2633 61.8084 76.9166 64.4524 80.1781 64.4524C83.4391 64.4524 86.093 61.8089 86.093 58.5594C86.093 57.4056 85.7532 56.3313 85.176 55.4214L93.5319 47.0964C94.0424 46.5877 94.0424 45.7631 93.5319 45.2539C93.0214 44.7474 92.1944 44.7476 91.6829 45.2562ZM38.3632 61.8492C36.5434 61.8492 35.0633 60.3746 35.0633 58.562C35.0633 56.7495 36.5434 55.2749 38.3632 55.2749C40.1824 55.2749 41.6625 56.7495 41.6625 58.562C41.6625 60.3746 40.1824 61.8492 38.3632 61.8492ZM53.4084 74.8815C51.5891 74.8815 50.109 73.4069 50.109 71.5944C50.109 69.7818 51.5891 68.3073 53.4084 68.3073C55.2276 68.3073 56.7077 69.7818 56.7077 71.5944C56.7077 73.4069 55.2276 74.8815 53.4084 74.8815ZM63.686 51.6336C61.8662 51.6336 60.3862 50.1591 60.3862 48.3465C60.3862 46.534 61.8662 45.0594 63.686 45.0594C65.5053 45.0594 66.9853 46.534 66.9853 48.3465C66.9853 50.1591 65.5053 51.6336 63.686 51.6336ZM80.1793 61.8493C78.36 61.8493 76.8799 60.3747 76.8799 58.5622C76.8799 56.7496 78.36 55.2751 80.1793 55.2751C81.0879 55.2751 81.9125 55.6434 82.5096 56.2373C82.5101 56.2379 82.5106 56.2384 82.5117 56.2384C83.1089 56.8333 83.4786 57.6554 83.4786 58.5606C83.4791 60.3748 81.9991 61.8493 80.1793 61.8493Z" fill="#5FC6C1"/>
</svg>
