<svg width="24" height="25" viewBox="0 0 24 25" fill="none" xmlns="http://www.w3.org/2000/svg">
<path fill-rule="evenodd" clip-rule="evenodd" d="M12 3.5C7.02944 3.5 3 7.52944 3 12.5C3 17.4706 7.02944 21.5 12 21.5C16.9706 21.5 21 17.4706 21 12.5C21 7.52944 16.9706 3.5 12 3.5ZM1 12.5C1 6.42487 5.92487 1.5 12 1.5C18.0751 1.5 23 6.42487 23 12.5C23 18.5751 18.0751 23.5 12 23.5C5.92487 23.5 1 18.5751 1 12.5Z" fill="#333333"/>
<path fill-rule="evenodd" clip-rule="evenodd" d="M1 12.5C1 11.9477 1.44772 11.5 2 11.5H22C22.5523 11.5 23 11.9477 23 12.5C23 13.0523 22.5523 13.5 22 13.5H2C1.44772 13.5 1 13.0523 1 12.5Z" fill="#333333"/>
<path fill-rule="evenodd" clip-rule="evenodd" d="M9.00023 12.5001C9.06877 15.5749 10.1263 18.5353 12 20.9493C13.8737 18.5353 14.9312 15.5749 14.9998 12.5001C14.9312 9.42527 13.8737 6.46495 12 4.0509C10.1263 6.46495 9.06877 9.42527 9.00023 12.5001ZM12 2.50011L11.2617 1.82568C8.59689 4.74301 7.08251 8.52896 7.00022 12.4793C6.99993 12.4932 6.99993 12.5071 7.00022 12.5209C7.08251 16.4713 8.59689 20.2572 11.2617 23.1745C11.4511 23.3819 11.7191 23.5001 12 23.5001C12.2809 23.5001 12.5489 23.3819 12.7383 23.1745C15.4031 20.2572 16.9175 16.4713 16.9998 12.5209C17.0001 12.5071 17.0001 12.4932 16.9998 12.4793C16.9175 8.52896 15.4031 4.74301 12.7383 1.82568L12 2.50011Z" fill="#333333"/>
</svg>
