<svg width="72" height="20" viewBox="0 0 72 20" fill="none" xmlns="http://www.w3.org/2000/svg">
<path d="M8.43359 4.64453C7.73828 4.64453 7.12109 4.78125 6.58203 5.05469C6.05078 5.32031 5.60156 5.70703 5.23438 6.21484C4.875 6.72266 4.60156 7.33594 4.41406 8.05469C4.22656 8.77344 4.13281 9.58203 4.13281 10.4805C4.13281 11.6914 4.28125 12.7266 4.57812 13.5859C4.88281 14.4375 5.35156 15.0898 5.98438 15.543C6.61719 15.9883 7.43359 16.2109 8.43359 16.2109C9.12891 16.2109 9.82422 16.1328 10.5195 15.9766C11.2227 15.8203 11.9844 15.5977 12.8047 15.3086V18.3555C12.0469 18.668 11.3008 18.8906 10.5664 19.0234C9.83203 19.1641 9.00781 19.2344 8.09375 19.2344C6.32812 19.2344 4.875 18.8711 3.73438 18.1445C2.60156 17.4102 1.76172 16.3867 1.21484 15.0742C0.667969 13.7539 0.394531 12.2148 0.394531 10.457C0.394531 9.16016 0.570312 7.97266 0.921875 6.89453C1.27344 5.81641 1.78906 4.88281 2.46875 4.09375C3.14844 3.30469 3.98828 2.69531 4.98828 2.26562C5.98828 1.83594 7.13672 1.62109 8.43359 1.62109C9.28516 1.62109 10.1367 1.73047 10.9883 1.94922C11.8477 2.16016 12.668 2.45312 13.4492 2.82812L12.2773 5.78125C11.6367 5.47656 10.9922 5.21094 10.3438 4.98438C9.69531 4.75781 9.05859 4.64453 8.43359 4.64453ZM26.3281 19H16.4609V1.86719H26.3281V4.84375H20.0938V8.60547H25.8945V11.582H20.0938V16H26.3281V19ZM43.7656 19H39.6172L35.6328 12.5195L31.6484 19H27.7578L33.4414 10.1641L28.1211 1.86719H32.1289L35.8203 8.03125L39.4414 1.86719H43.3555L37.9766 10.3633L43.7656 19ZM45.1367 17.3242C45.1367 16.5898 45.3359 16.0742 45.7344 15.7773C46.1406 15.4805 46.6289 15.332 47.1992 15.332C47.7539 15.332 48.2305 15.4805 48.6289 15.7773C49.0352 16.0742 49.2383 16.5898 49.2383 17.3242C49.2383 18.0273 49.0352 18.5352 48.6289 18.8477C48.2305 19.1602 47.7539 19.3164 47.1992 19.3164C46.6289 19.3164 46.1406 19.1602 45.7344 18.8477C45.3359 18.5352 45.1367 18.0273 45.1367 17.3242Z" fill="#333333"/>
<path d="M56.0586 5.89844V19H52.4844V5.89844H56.0586ZM54.2773 0.765625C54.8086 0.765625 55.2656 0.890625 55.6484 1.14062C56.0312 1.38281 56.2227 1.83984 56.2227 2.51172C56.2227 3.17578 56.0312 3.63672 55.6484 3.89453C55.2656 4.14453 54.8086 4.26953 54.2773 4.26953C53.7383 4.26953 53.2773 4.14453 52.8945 3.89453C52.5195 3.63672 52.332 3.17578 52.332 2.51172C52.332 1.83984 52.5195 1.38281 52.8945 1.14062C53.2773 0.890625 53.7383 0.765625 54.2773 0.765625ZM71.7266 12.4258C71.7266 13.5195 71.5781 14.4883 71.2812 15.332C70.9922 16.1758 70.5664 16.8906 70.0039 17.4766C69.4492 18.0547 68.7773 18.4922 67.9883 18.7891C67.207 19.0859 66.3242 19.2344 65.3398 19.2344C64.418 19.2344 63.5703 19.0859 62.7969 18.7891C62.0312 18.4922 61.3633 18.0547 60.793 17.4766C60.2305 16.8906 59.793 16.1758 59.4805 15.332C59.1758 14.4883 59.0234 13.5195 59.0234 12.4258C59.0234 10.9727 59.2812 9.74219 59.7969 8.73438C60.3125 7.72656 61.0469 6.96094 62 6.4375C62.9531 5.91406 64.0898 5.65234 65.4102 5.65234C66.6367 5.65234 67.7227 5.91406 68.668 6.4375C69.6211 6.96094 70.3672 7.72656 70.9062 8.73438C71.4531 9.74219 71.7266 10.9727 71.7266 12.4258ZM62.668 12.4258C62.668 13.2852 62.7617 14.0078 62.9492 14.5938C63.1367 15.1797 63.4297 15.6211 63.8281 15.918C64.2266 16.2148 64.7461 16.3633 65.3867 16.3633C66.0195 16.3633 66.5312 16.2148 66.9219 15.918C67.3203 15.6211 67.6094 15.1797 67.7891 14.5938C67.9766 14.0078 68.0703 13.2852 68.0703 12.4258C68.0703 11.5586 67.9766 10.8398 67.7891 10.2695C67.6094 9.69141 67.3203 9.25781 66.9219 8.96875C66.5234 8.67969 66.0039 8.53516 65.3633 8.53516C64.418 8.53516 63.7305 8.85938 63.3008 9.50781C62.8789 10.1562 62.668 11.1289 62.668 12.4258Z" fill="#269E96"/>
</svg>
