<svg width="90" height="24" viewBox="0 0 90 24" fill="none" xmlns="http://www.w3.org/2000/svg">
<path d="M10.792 5.05566C9.92285 5.05566 9.15137 5.22656 8.47754 5.56836C7.81348 5.90039 7.25195 6.38379 6.79297 7.01855C6.34375 7.65332 6.00195 8.41992 5.76758 9.31836C5.5332 10.2168 5.41602 11.2275 5.41602 12.3506C5.41602 13.8643 5.60156 15.1582 5.97266 16.2324C6.35352 17.2969 6.93945 18.1123 7.73047 18.6787C8.52148 19.2354 9.54199 19.5137 10.792 19.5137C11.6611 19.5137 12.5303 19.416 13.3994 19.2207C14.2783 19.0254 15.2305 18.7471 16.2559 18.3857V22.1943C15.3086 22.585 14.376 22.8633 13.458 23.0293C12.54 23.2051 11.5098 23.293 10.3672 23.293C8.16016 23.293 6.34375 22.8389 4.91797 21.9307C3.50195 21.0127 2.45215 19.7334 1.76855 18.0928C1.08496 16.4424 0.743164 14.5186 0.743164 12.3213C0.743164 10.7002 0.962891 9.21582 1.40234 7.86816C1.8418 6.52051 2.48633 5.35352 3.33594 4.36719C4.18555 3.38086 5.23535 2.61914 6.48535 2.08203C7.73535 1.54492 9.1709 1.27637 10.792 1.27637C11.8564 1.27637 12.9209 1.41309 13.9854 1.68652C15.0596 1.9502 16.085 2.31641 17.0615 2.78516L15.5967 6.47656C14.7959 6.0957 13.9902 5.76367 13.1797 5.48047C12.3691 5.19727 11.5732 5.05566 10.792 5.05566ZM33.1602 23H20.8262V1.58398H33.1602V5.30469H25.3672V10.0068H32.6182V13.7275H25.3672V19.25H33.1602V23ZM54.957 23H49.7715L44.791 14.8994L39.8105 23H34.9473L42.0518 11.9551L35.4014 1.58398H40.4111L45.0254 9.28906L49.5518 1.58398H54.4443L47.7207 12.2041L54.957 23ZM56.6709 20.9053C56.6709 19.9873 56.9199 19.3428 57.418 18.9717C57.9258 18.6006 58.5361 18.415 59.249 18.415C59.9424 18.415 60.5381 18.6006 61.0361 18.9717C61.5439 19.3428 61.7979 19.9873 61.7979 20.9053C61.7979 21.7842 61.5439 22.4189 61.0361 22.8096C60.5381 23.2002 59.9424 23.3955 59.249 23.3955C58.5361 23.3955 57.9258 23.2002 57.418 22.8096C56.9199 22.4189 56.6709 21.7842 56.6709 20.9053Z" fill="white"/>
<path d="M70.3232 6.62305V23H65.8555V6.62305H70.3232ZM68.0967 0.207031C68.7607 0.207031 69.332 0.363281 69.8105 0.675781C70.2891 0.978516 70.5283 1.5498 70.5283 2.38965C70.5283 3.21973 70.2891 3.7959 69.8105 4.11816C69.332 4.43066 68.7607 4.58691 68.0967 4.58691C67.4229 4.58691 66.8467 4.43066 66.3682 4.11816C65.8994 3.7959 65.665 3.21973 65.665 2.38965C65.665 1.5498 65.8994 0.978516 66.3682 0.675781C66.8467 0.363281 67.4229 0.207031 68.0967 0.207031ZM89.9082 14.7822C89.9082 16.1494 89.7227 17.3604 89.3516 18.415C88.9902 19.4697 88.458 20.3633 87.7549 21.0957C87.0615 21.8184 86.2217 22.3652 85.2354 22.7363C84.2588 23.1074 83.1553 23.293 81.9248 23.293C80.7725 23.293 79.7129 23.1074 78.7461 22.7363C77.7891 22.3652 76.9541 21.8184 76.2412 21.0957C75.5381 20.3633 74.9912 19.4697 74.6006 18.415C74.2197 17.3604 74.0293 16.1494 74.0293 14.7822C74.0293 12.9658 74.3516 11.4277 74.9961 10.168C75.6406 8.9082 76.5586 7.95117 77.75 7.29688C78.9414 6.64258 80.3623 6.31543 82.0127 6.31543C83.5459 6.31543 84.9033 6.64258 86.085 7.29688C87.2764 7.95117 88.209 8.9082 88.8828 10.168C89.5664 11.4277 89.9082 12.9658 89.9082 14.7822ZM78.585 14.7822C78.585 15.8564 78.7021 16.7598 78.9365 17.4922C79.1709 18.2246 79.5371 18.7764 80.0352 19.1475C80.5332 19.5186 81.1826 19.7041 81.9834 19.7041C82.7744 19.7041 83.4141 19.5186 83.9023 19.1475C84.4004 18.7764 84.7617 18.2246 84.9863 17.4922C85.2207 16.7598 85.3379 15.8564 85.3379 14.7822C85.3379 13.6982 85.2207 12.7998 84.9863 12.0869C84.7617 11.3643 84.4004 10.8223 83.9023 10.4609C83.4043 10.0996 82.7549 9.91895 81.9541 9.91895C80.7725 9.91895 79.9131 10.3242 79.376 11.1348C78.8486 11.9453 78.585 13.1611 78.585 14.7822Z" fill="#269E96"/>
</svg>
